<svg xmlns="http://www.w3.org/2000/svg" version="1.1" xmlns:xlink="http://www.w3.org/1999/xlink" xmlns:svgjs="http://svgjs.com/svgjs" width="1600" height="1400" preserveAspectRatio="none" viewBox="0 0 1600 1400"><g mask="url(&quot;#SvgjsMask1092&quot;)" fill="none"><path d="M252.32 802.09L333.73 849.09L333.73 943.09L252.32 990.09L170.91 943.09L170.91 849.09zM333.73 1225.09L415.13 1272.09L415.13 1366.09L333.73 1413.09L252.32 1366.09L252.32 1272.09zM252.32 1366.09L333.73 1413.09L333.73 1507.09L252.32 1554.09L170.91 1507.09L170.91 1413.09zM496.54 97.09L577.95 144.09L577.95 238.09L496.54 285.09L415.13 238.09L415.13 144.09zM740.77 238.09L822.18 285.09L822.18 379.09L740.77 426.09L659.36 379.09L659.36 285.09zM822.18 943.09L903.59 990.09L903.59 1084.09L822.18 1131.09L740.77 1084.09L740.77 990.09zM1147.81 97.09L1229.22 144.09L1229.22 238.09L1147.81 285.09L1066.4 238.09L1066.4 144.09zM1066.4 1084.09L1147.81 1131.09L1147.81 1225.09L1066.4 1272.09L985 1225.09L985 1131.09zM1229.22 520.09L1310.63 567.09L1310.63 661.09L1229.22 708.09L1147.81 661.09L1147.81 567.09zM1310.63 943.09L1392.04 990.09L1392.04 1084.09L1310.63 1131.09L1229.22 1084.09L1229.22 990.09zM1392.04 238.09L1473.45 285.09L1473.45 379.09L1392.04 426.09L1310.63 379.09L1310.63 285.09zM1473.45 379.09L1554.86 426.09L1554.86 520.09L1473.45 567.09L1392.04 520.09L1392.04 426.09zM1392.04 802.09L1473.45 849.09L1473.45 943.09L1392.04 990.09L1310.63 943.09L1310.63 849.09zM1473.45 943.09L1554.86 990.09L1554.86 1084.09L1473.45 1131.09L1392.04 1084.09L1392.04 990.09zM1392.04 1366.09L1473.45 1413.09L1473.45 1507.09L1392.04 1554.09L1310.63 1507.09L1310.63 1413.09zM1636.27 1225.09L1717.67 1272.09L1717.67 1366.09L1636.27 1413.09L1554.86 1366.09L1554.86 1272.09z" stroke="#03305d" stroke-width="2"></path><path d="M242.92 802.09 a9.4 9.4 0 1 0 18.8 0 a9.4 9.4 0 1 0 -18.8 0zM324.33 849.09 a9.4 9.4 0 1 0 18.8 0 a9.4 9.4 0 1 0 -18.8 0zM324.33 943.09 a9.4 9.4 0 1 0 18.8 0 a9.4 9.4 0 1 0 -18.8 0zM242.92 990.09 a9.4 9.4 0 1 0 18.8 0 a9.4 9.4 0 1 0 -18.8 0zM161.51 943.09 a9.4 9.4 0 1 0 18.8 0 a9.4 9.4 0 1 0 -18.8 0zM161.51 849.09 a9.4 9.4 0 1 0 18.8 0 a9.4 9.4 0 1 0 -18.8 0zM324.33 1225.09 a9.4 9.4 0 1 0 18.8 0 a9.4 9.4 0 1 0 -18.8 0zM405.73 1272.09 a9.4 9.4 0 1 0 18.8 0 a9.4 9.4 0 1 0 -18.8 0zM405.73 1366.09 a9.4 9.4 0 1 0 18.8 0 a9.4 9.4 0 1 0 -18.8 0zM324.33 1413.09 a9.4 9.4 0 1 0 18.8 0 a9.4 9.4 0 1 0 -18.8 0zM242.92 1366.09 a9.4 9.4 0 1 0 18.8 0 a9.4 9.4 0 1 0 -18.8 0zM242.92 1272.09 a9.4 9.4 0 1 0 18.8 0 a9.4 9.4 0 1 0 -18.8 0zM324.33 1507.09 a9.4 9.4 0 1 0 18.8 0 a9.4 9.4 0 1 0 -18.8 0zM242.92 1554.09 a9.4 9.4 0 1 0 18.8 0 a9.4 9.4 0 1 0 -18.8 0zM161.51 1507.09 a9.4 9.4 0 1 0 18.8 0 a9.4 9.4 0 1 0 -18.8 0zM161.51 1413.09 a9.4 9.4 0 1 0 18.8 0 a9.4 9.4 0 1 0 -18.8 0zM487.14 97.09 a9.4 9.4 0 1 0 18.8 0 a9.4 9.4 0 1 0 -18.8 0zM568.55 144.09 a9.4 9.4 0 1 0 18.8 0 a9.4 9.4 0 1 0 -18.8 0zM568.55 238.09 a9.4 9.4 0 1 0 18.8 0 a9.4 9.4 0 1 0 -18.8 0zM487.14 285.09 a9.4 9.4 0 1 0 18.8 0 a9.4 9.4 0 1 0 -18.8 0zM405.73 238.09 a9.4 9.4 0 1 0 18.8 0 a9.4 9.4 0 1 0 -18.8 0zM405.73 144.09 a9.4 9.4 0 1 0 18.8 0 a9.4 9.4 0 1 0 -18.8 0zM731.37 238.09 a9.4 9.4 0 1 0 18.8 0 a9.4 9.4 0 1 0 -18.8 0zM812.78 285.09 a9.4 9.4 0 1 0 18.8 0 a9.4 9.4 0 1 0 -18.8 0zM812.78 379.09 a9.4 9.4 0 1 0 18.8 0 a9.4 9.4 0 1 0 -18.8 0zM731.37 426.09 a9.4 9.4 0 1 0 18.8 0 a9.4 9.4 0 1 0 -18.8 0zM649.96 379.09 a9.4 9.4 0 1 0 18.8 0 a9.4 9.4 0 1 0 -18.8 0zM649.96 285.09 a9.4 9.4 0 1 0 18.8 0 a9.4 9.4 0 1 0 -18.8 0zM812.78 943.09 a9.4 9.4 0 1 0 18.8 0 a9.4 9.4 0 1 0 -18.8 0zM894.19 990.09 a9.4 9.4 0 1 0 18.8 0 a9.4 9.4 0 1 0 -18.8 0zM894.19 1084.09 a9.4 9.4 0 1 0 18.8 0 a9.4 9.4 0 1 0 -18.8 0zM812.78 1131.09 a9.4 9.4 0 1 0 18.8 0 a9.4 9.4 0 1 0 -18.8 0zM731.37 1084.09 a9.4 9.4 0 1 0 18.8 0 a9.4 9.4 0 1 0 -18.8 0zM731.37 990.09 a9.4 9.4 0 1 0 18.8 0 a9.4 9.4 0 1 0 -18.8 0zM1138.41 97.09 a9.4 9.4 0 1 0 18.8 0 a9.4 9.4 0 1 0 -18.8 0zM1219.82 144.09 a9.4 9.4 0 1 0 18.8 0 a9.4 9.4 0 1 0 -18.8 0zM1219.82 238.09 a9.4 9.4 0 1 0 18.8 0 a9.4 9.4 0 1 0 -18.8 0zM1138.41 285.09 a9.4 9.4 0 1 0 18.8 0 a9.4 9.4 0 1 0 -18.8 0zM1057 238.09 a9.4 9.4 0 1 0 18.8 0 a9.4 9.4 0 1 0 -18.8 0zM1057 144.09 a9.4 9.4 0 1 0 18.8 0 a9.4 9.4 0 1 0 -18.8 0zM1057 1084.09 a9.4 9.4 0 1 0 18.8 0 a9.4 9.4 0 1 0 -18.8 0zM1138.41 1131.09 a9.4 9.4 0 1 0 18.8 0 a9.4 9.4 0 1 0 -18.8 0zM1138.41 1225.09 a9.4 9.4 0 1 0 18.8 0 a9.4 9.4 0 1 0 -18.8 0zM1057 1272.09 a9.4 9.4 0 1 0 18.8 0 a9.4 9.4 0 1 0 -18.8 0zM975.6 1225.09 a9.4 9.4 0 1 0 18.8 0 a9.4 9.4 0 1 0 -18.8 0zM975.6 1131.09 a9.4 9.4 0 1 0 18.8 0 a9.4 9.4 0 1 0 -18.8 0zM1219.82 520.09 a9.4 9.4 0 1 0 18.8 0 a9.4 9.4 0 1 0 -18.8 0zM1301.23 567.09 a9.4 9.4 0 1 0 18.8 0 a9.4 9.4 0 1 0 -18.8 0zM1301.23 661.09 a9.4 9.4 0 1 0 18.8 0 a9.4 9.4 0 1 0 -18.8 0zM1219.82 708.09 a9.4 9.4 0 1 0 18.8 0 a9.4 9.4 0 1 0 -18.8 0zM1138.41 661.09 a9.4 9.4 0 1 0 18.8 0 a9.4 9.4 0 1 0 -18.8 0zM1138.41 567.09 a9.4 9.4 0 1 0 18.8 0 a9.4 9.4 0 1 0 -18.8 0zM1301.23 943.09 a9.4 9.4 0 1 0 18.8 0 a9.4 9.4 0 1 0 -18.8 0zM1382.64 990.09 a9.4 9.4 0 1 0 18.8 0 a9.4 9.4 0 1 0 -18.8 0zM1382.64 1084.09 a9.4 9.4 0 1 0 18.8 0 a9.4 9.4 0 1 0 -18.8 0zM1301.23 1131.09 a9.4 9.4 0 1 0 18.8 0 a9.4 9.4 0 1 0 -18.8 0zM1219.82 1084.09 a9.4 9.4 0 1 0 18.8 0 a9.4 9.4 0 1 0 -18.8 0zM1219.82 990.09 a9.4 9.4 0 1 0 18.8 0 a9.4 9.4 0 1 0 -18.8 0zM1382.64 238.09 a9.4 9.4 0 1 0 18.8 0 a9.4 9.4 0 1 0 -18.8 0zM1464.05 285.09 a9.4 9.4 0 1 0 18.8 0 a9.4 9.4 0 1 0 -18.8 0zM1464.05 379.09 a9.4 9.4 0 1 0 18.8 0 a9.4 9.4 0 1 0 -18.8 0zM1382.64 426.09 a9.4 9.4 0 1 0 18.8 0 a9.4 9.4 0 1 0 -18.8 0zM1301.23 379.09 a9.4 9.4 0 1 0 18.8 0 a9.4 9.4 0 1 0 -18.8 0zM1301.23 285.09 a9.4 9.4 0 1 0 18.8 0 a9.4 9.4 0 1 0 -18.8 0zM1545.46 426.09 a9.4 9.4 0 1 0 18.8 0 a9.4 9.4 0 1 0 -18.8 0zM1545.46 520.09 a9.4 9.4 0 1 0 18.8 0 a9.4 9.4 0 1 0 -18.8 0zM1464.05 567.09 a9.4 9.4 0 1 0 18.8 0 a9.4 9.4 0 1 0 -18.8 0zM1382.64 520.09 a9.4 9.4 0 1 0 18.8 0 a9.4 9.4 0 1 0 -18.8 0zM1382.64 802.09 a9.4 9.4 0 1 0 18.8 0 a9.4 9.4 0 1 0 -18.8 0zM1464.05 849.09 a9.4 9.4 0 1 0 18.8 0 a9.4 9.4 0 1 0 -18.8 0zM1464.05 943.09 a9.4 9.4 0 1 0 18.8 0 a9.4 9.4 0 1 0 -18.8 0zM1301.23 849.09 a9.4 9.4 0 1 0 18.8 0 a9.4 9.4 0 1 0 -18.8 0zM1545.46 990.09 a9.4 9.4 0 1 0 18.8 0 a9.4 9.4 0 1 0 -18.8 0zM1545.46 1084.09 a9.4 9.4 0 1 0 18.8 0 a9.4 9.4 0 1 0 -18.8 0zM1464.05 1131.09 a9.4 9.4 0 1 0 18.8 0 a9.4 9.4 0 1 0 -18.8 0zM1382.64 1366.09 a9.4 9.4 0 1 0 18.8 0 a9.4 9.4 0 1 0 -18.8 0zM1464.05 1413.09 a9.4 9.4 0 1 0 18.8 0 a9.4 9.4 0 1 0 -18.8 0zM1464.05 1507.09 a9.4 9.4 0 1 0 18.8 0 a9.4 9.4 0 1 0 -18.8 0zM1382.64 1554.09 a9.4 9.4 0 1 0 18.8 0 a9.4 9.4 0 1 0 -18.8 0zM1301.23 1507.09 a9.4 9.4 0 1 0 18.8 0 a9.4 9.4 0 1 0 -18.8 0zM1301.23 1413.09 a9.4 9.4 0 1 0 18.8 0 a9.4 9.4 0 1 0 -18.8 0zM1626.87 1225.09 a9.4 9.4 0 1 0 18.8 0 a9.4 9.4 0 1 0 -18.8 0zM1708.27 1272.09 a9.4 9.4 0 1 0 18.8 0 a9.4 9.4 0 1 0 -18.8 0zM1708.27 1366.09 a9.4 9.4 0 1 0 18.8 0 a9.4 9.4 0 1 0 -18.8 0zM1626.87 1413.09 a9.4 9.4 0 1 0 18.8 0 a9.4 9.4 0 1 0 -18.8 0zM1545.46 1366.09 a9.4 9.4 0 1 0 18.8 0 a9.4 9.4 0 1 0 -18.8 0zM1545.46 1272.09 a9.4 9.4 0 1 0 18.8 0 a9.4 9.4 0 1 0 -18.8 0z" fill="#03305d"></path><path d="M6.03 -32.44L40.67 -12.44L40.67 27.56L6.03 47.56L-28.61 27.56L-28.61 -12.44zM6.03 327.56L40.67 347.56L40.67 387.56L6.03 407.56L-28.61 387.56L-28.61 347.56zM6.03 447.56L40.67 467.56L40.67 507.56L6.03 527.56L-28.61 507.56L-28.61 467.56zM40.67 627.56L75.31 647.56L75.31 687.56L40.67 707.56L6.03 687.56L6.03 647.56zM40.67 747.56L75.31 767.56L75.31 807.56L40.67 827.56L6.03 807.56L6.03 767.56zM6.03 807.56L40.67 827.56L40.67 867.56L6.03 887.56L-28.61 867.56L-28.61 827.56zM6.03 927.56L40.67 947.56L40.67 987.56L6.03 1007.56L-28.61 987.56L-28.61 947.56zM40.67 1347.56L75.31 1367.56L75.31 1407.56L40.67 1427.56L6.03 1407.56L6.03 1367.56zM109.96 507.56L144.6 527.56L144.6 567.56L109.96 587.56L75.31 567.56L75.31 527.56zM75.31 567.56L109.96 587.56L109.96 627.56L75.31 647.56L40.67 627.56L40.67 587.56zM109.96 627.56L144.6 647.56L144.6 687.56L109.96 707.56L75.31 687.56L75.31 647.56zM75.31 687.56L109.96 707.56L109.96 747.56L75.31 767.56L40.67 747.56L40.67 707.56zM109.96 747.56L144.6 767.56L144.6 807.56L109.96 827.56L75.31 807.56L75.31 767.56zM109.96 987.56L144.6 1007.56L144.6 1047.56L109.96 1067.56L75.31 1047.56L75.31 1007.56zM75.31 1287.56L109.96 1307.56L109.96 1347.56L75.31 1367.56L40.67 1347.56L40.67 1307.56zM144.6 -32.44L179.24 -12.44L179.24 27.56L144.6 47.56L109.96 27.56L109.96 -12.44zM144.6 87.56L179.24 107.56L179.24 147.56L144.6 167.56L109.96 147.56L109.96 107.56zM179.24 267.56L213.88 287.56L213.88 327.56L179.24 347.56L144.6 327.56L144.6 287.56zM179.24 387.56L213.88 407.56L213.88 447.56L179.24 467.56L144.6 447.56L144.6 407.56zM179.24 507.56L213.88 527.56L213.88 567.56L179.24 587.56L144.6 567.56L144.6 527.56zM144.6 567.56L179.24 587.56L179.24 627.56L144.6 647.56L109.96 627.56L109.96 587.56zM179.24 627.56L213.88 647.56L213.88 687.56L179.24 707.56L144.6 687.56L144.6 647.56zM179.24 987.56L213.88 1007.56L213.88 1047.56L179.24 1067.56L144.6 1047.56L144.6 1007.56zM248.52 507.56L283.17 527.56L283.17 567.56L248.52 587.56L213.88 567.56L213.88 527.56zM248.52 627.56L283.17 647.56L283.17 687.56L248.52 707.56L213.88 687.56L213.88 647.56zM248.52 747.56L283.17 767.56L283.17 807.56L248.52 827.56L213.88 807.56L213.88 767.56zM213.88 807.56L248.52 827.56L248.52 867.56L213.88 887.56L179.24 867.56L179.24 827.56zM248.52 867.56L283.17 887.56L283.17 927.56L248.52 947.56L213.88 927.56L213.88 887.56zM248.52 987.56L283.17 1007.56L283.17 1047.56L248.52 1067.56L213.88 1047.56L213.88 1007.56zM283.17 87.56L317.81 107.56L317.81 147.56L283.17 167.56L248.52 147.56L248.52 107.56zM317.81 147.56L352.45 167.56L352.45 207.56L317.81 227.56L283.17 207.56L283.17 167.56zM317.81 267.56L352.45 287.56L352.45 327.56L317.81 347.56L283.17 327.56L283.17 287.56zM317.81 387.56L352.45 407.56L352.45 447.56L317.81 467.56L283.17 447.56L283.17 407.56zM283.17 687.56L317.81 707.56L317.81 747.56L283.17 767.56L248.52 747.56L248.52 707.56zM283.17 807.56L317.81 827.56L317.81 867.56L283.17 887.56L248.52 867.56L248.52 827.56zM283.17 927.56L317.81 947.56L317.81 987.56L283.17 1007.56L248.52 987.56L248.52 947.56zM283.17 1047.56L317.81 1067.56L317.81 1107.56L283.17 1127.56L248.52 1107.56L248.52 1067.56zM283.17 1287.56L317.81 1307.56L317.81 1347.56L283.17 1367.56L248.52 1347.56L248.52 1307.56zM352.45 -32.44L387.09 -12.44L387.09 27.56L352.45 47.56L317.81 27.56L317.81 -12.44zM352.45 87.56L387.09 107.56L387.09 147.56L352.45 167.56L317.81 147.56L317.81 107.56zM387.09 267.56L421.73 287.56L421.73 327.56L387.09 347.56L352.45 327.56L352.45 287.56zM387.09 387.56L421.73 407.56L421.73 447.56L387.09 467.56L352.45 447.56L352.45 407.56zM387.09 627.56L421.73 647.56L421.73 687.56L387.09 707.56L352.45 687.56L352.45 647.56zM352.45 807.56L387.09 827.56L387.09 867.56L352.45 887.56L317.81 867.56L317.81 827.56zM387.09 867.56L421.73 887.56L421.73 927.56L387.09 947.56L352.45 927.56L352.45 887.56zM387.09 1107.56L421.73 1127.56L421.73 1167.56L387.09 1187.56L352.45 1167.56L352.45 1127.56zM387.09 1347.56L421.73 1367.56L421.73 1407.56L387.09 1427.56L352.45 1407.56L352.45 1367.56zM421.73 -32.44L456.38 -12.44L456.38 27.56L421.73 47.56L387.09 27.56L387.09 -12.44zM456.38 27.56L491.02 47.56L491.02 87.56L456.38 107.56L421.73 87.56L421.73 47.56zM456.38 267.56L491.02 287.56L491.02 327.56L456.38 347.56L421.73 327.56L421.73 287.56zM456.38 387.56L491.02 407.56L491.02 447.56L456.38 467.56L421.73 447.56L421.73 407.56zM421.73 447.56L456.38 467.56L456.38 507.56L421.73 527.56L387.09 507.56L387.09 467.56zM456.38 507.56L491.02 527.56L491.02 567.56L456.38 587.56L421.73 567.56L421.73 527.56zM421.73 567.56L456.38 587.56L456.38 627.56L421.73 647.56L387.09 627.56L387.09 587.56zM456.38 627.56L491.02 647.56L491.02 687.56L456.38 707.56L421.73 687.56L421.73 647.56zM421.73 927.56L456.38 947.56L456.38 987.56L421.73 1007.56L387.09 987.56L387.09 947.56zM456.38 1107.56L491.02 1127.56L491.02 1167.56L456.38 1187.56L421.73 1167.56L421.73 1127.56zM421.73 1167.56L456.38 1187.56L456.38 1227.56L421.73 1247.56L387.09 1227.56L387.09 1187.56zM421.73 1287.56L456.38 1307.56L456.38 1347.56L421.73 1367.56L387.09 1347.56L387.09 1307.56zM456.38 1347.56L491.02 1367.56L491.02 1407.56L456.38 1427.56L421.73 1407.56L421.73 1367.56zM491.02 87.56L525.66 107.56L525.66 147.56L491.02 167.56L456.38 147.56L456.38 107.56zM491.02 207.56L525.66 227.56L525.66 267.56L491.02 287.56L456.38 267.56L456.38 227.56zM491.02 567.56L525.66 587.56L525.66 627.56L491.02 647.56L456.38 627.56L456.38 587.56zM525.66 1107.56L560.3 1127.56L560.3 1167.56L525.66 1187.56L491.02 1167.56L491.02 1127.56zM525.66 1347.56L560.3 1367.56L560.3 1407.56L525.66 1427.56L491.02 1407.56L491.02 1367.56zM560.3 -32.44L594.94 -12.44L594.94 27.56L560.3 47.56L525.66 27.56L525.66 -12.44zM594.94 27.56L629.59 47.56L629.59 87.56L594.94 107.56L560.3 87.56L560.3 47.56zM560.3 207.56L594.94 227.56L594.94 267.56L560.3 287.56L525.66 267.56L525.66 227.56zM594.94 507.56L629.59 527.56L629.59 567.56L594.94 587.56L560.3 567.56L560.3 527.56zM594.94 627.56L629.59 647.56L629.59 687.56L594.94 707.56L560.3 687.56L560.3 647.56zM594.94 1107.56L629.59 1127.56L629.59 1167.56L594.94 1187.56L560.3 1167.56L560.3 1127.56zM560.3 1167.56L594.94 1187.56L594.94 1227.56L560.3 1247.56L525.66 1227.56L525.66 1187.56zM594.94 1227.56L629.59 1247.56L629.59 1287.56L594.94 1307.56L560.3 1287.56L560.3 1247.56zM629.59 -32.44L664.23 -12.44L664.23 27.56L629.59 47.56L594.94 27.56L594.94 -12.44zM664.23 147.56L698.87 167.56L698.87 207.56L664.23 227.56L629.59 207.56L629.59 167.56zM629.59 207.56L664.23 227.56L664.23 267.56L629.59 287.56L594.94 267.56L594.94 227.56zM664.23 387.56L698.87 407.56L698.87 447.56L664.23 467.56L629.59 447.56L629.59 407.56zM629.59 567.56L664.23 587.56L664.23 627.56L629.59 647.56L594.94 627.56L594.94 587.56zM629.59 687.56L664.23 707.56L664.23 747.56L629.59 767.56L594.94 747.56L594.94 707.56zM629.59 807.56L664.23 827.56L664.23 867.56L629.59 887.56L594.94 867.56L594.94 827.56zM664.23 867.56L698.87 887.56L698.87 927.56L664.23 947.56L629.59 927.56L629.59 887.56zM629.59 1167.56L664.23 1187.56L664.23 1227.56L629.59 1247.56L594.94 1227.56L594.94 1187.56zM664.23 1227.56L698.87 1247.56L698.87 1287.56L664.23 1307.56L629.59 1287.56L629.59 1247.56zM698.87 -32.44L733.51 -12.44L733.51 27.56L698.87 47.56L664.23 27.56L664.23 -12.44zM698.87 87.56L733.51 107.56L733.51 147.56L698.87 167.56L664.23 147.56L664.23 107.56zM698.87 447.56L733.51 467.56L733.51 507.56L698.87 527.56L664.23 507.56L664.23 467.56zM733.51 747.56L768.15 767.56L768.15 807.56L733.51 827.56L698.87 807.56L698.87 767.56zM698.87 807.56L733.51 827.56L733.51 867.56L698.87 887.56L664.23 867.56L664.23 827.56zM698.87 1167.56L733.51 1187.56L733.51 1227.56L698.87 1247.56L664.23 1227.56L664.23 1187.56zM733.51 1227.56L768.15 1247.56L768.15 1287.56L733.51 1307.56L698.87 1287.56L698.87 1247.56zM698.87 1287.56L733.51 1307.56L733.51 1347.56L698.87 1367.56L664.23 1347.56L664.23 1307.56zM768.15 -32.44L802.8 -12.44L802.8 27.56L768.15 47.56L733.51 27.56L733.51 -12.44zM768.15 87.56L802.8 107.56L802.8 147.56L768.15 167.56L733.51 147.56L733.51 107.56zM802.8 507.56L837.44 527.56L837.44 567.56L802.8 587.56L768.15 567.56L768.15 527.56zM802.8 627.56L837.44 647.56L837.44 687.56L802.8 707.56L768.15 687.56L768.15 647.56zM768.15 687.56L802.8 707.56L802.8 747.56L768.15 767.56L733.51 747.56L733.51 707.56zM802.8 747.56L837.44 767.56L837.44 807.56L802.8 827.56L768.15 807.56L768.15 767.56zM768.15 927.56L802.8 947.56L802.8 987.56L768.15 1007.56L733.51 987.56L733.51 947.56zM802.8 1107.56L837.44 1127.56L837.44 1167.56L802.8 1187.56L768.15 1167.56L768.15 1127.56zM802.8 1227.56L837.44 1247.56L837.44 1287.56L802.8 1307.56L768.15 1287.56L768.15 1247.56zM768.15 1287.56L802.8 1307.56L802.8 1347.56L768.15 1367.56L733.51 1347.56L733.51 1307.56zM802.8 1347.56L837.44 1367.56L837.44 1407.56L802.8 1427.56L768.15 1407.56L768.15 1367.56zM872.08 27.56L906.72 47.56L906.72 87.56L872.08 107.56L837.44 87.56L837.44 47.56zM872.08 267.56L906.72 287.56L906.72 327.56L872.08 347.56L837.44 327.56L837.44 287.56zM872.08 387.56L906.72 407.56L906.72 447.56L872.08 467.56L837.44 447.56L837.44 407.56zM837.44 447.56L872.08 467.56L872.08 507.56L837.44 527.56L802.8 507.56L802.8 467.56zM872.08 507.56L906.72 527.56L906.72 567.56L872.08 587.56L837.44 567.56L837.44 527.56zM837.44 687.56L872.08 707.56L872.08 747.56L837.44 767.56L802.8 747.56L802.8 707.56zM837.44 927.56L872.08 947.56L872.08 987.56L837.44 1007.56L802.8 987.56L802.8 947.56zM837.44 1167.56L872.08 1187.56L872.08 1227.56L837.44 1247.56L802.8 1227.56L802.8 1187.56zM837.44 1287.56L872.08 1307.56L872.08 1347.56L837.44 1367.56L802.8 1347.56L802.8 1307.56zM872.08 1347.56L906.72 1367.56L906.72 1407.56L872.08 1427.56L837.44 1407.56L837.44 1367.56zM906.72 -32.44L941.36 -12.44L941.36 27.56L906.72 47.56L872.08 27.56L872.08 -12.44zM941.36 27.56L976.01 47.56L976.01 87.56L941.36 107.56L906.72 87.56L906.72 47.56zM906.72 447.56L941.36 467.56L941.36 507.56L906.72 527.56L872.08 507.56L872.08 467.56zM906.72 807.56L941.36 827.56L941.36 867.56L906.72 887.56L872.08 867.56L872.08 827.56zM906.72 927.56L941.36 947.56L941.36 987.56L906.72 1007.56L872.08 987.56L872.08 947.56zM941.36 987.56L976.01 1007.56L976.01 1047.56L941.36 1067.56L906.72 1047.56L906.72 1007.56zM941.36 1347.56L976.01 1367.56L976.01 1407.56L941.36 1427.56L906.72 1407.56L906.72 1367.56zM976.01 -32.44L1010.65 -12.44L1010.65 27.56L976.01 47.56L941.36 27.56L941.36 -12.44zM1010.65 747.56L1045.29 767.56L1045.29 807.56L1010.65 827.56L976.01 807.56L976.01 767.56zM976.01 927.56L1010.65 947.56L1010.65 987.56L976.01 1007.56L941.36 987.56L941.36 947.56zM976.01 1167.56L1010.65 1187.56L1010.65 1227.56L976.01 1247.56L941.36 1227.56L941.36 1187.56zM1010.65 1227.56L1045.29 1247.56L1045.29 1287.56L1010.65 1307.56L976.01 1287.56L976.01 1247.56zM976.01 1287.56L1010.65 1307.56L1010.65 1347.56L976.01 1367.56L941.36 1347.56L941.36 1307.56zM1045.29 -32.44L1079.93 -12.44L1079.93 27.56L1045.29 47.56L1010.65 27.56L1010.65 -12.44zM1079.93 27.56L1114.57 47.56L1114.57 87.56L1079.93 107.56L1045.29 87.56L1045.29 47.56zM1045.29 207.56L1079.93 227.56L1079.93 267.56L1045.29 287.56L1010.65 267.56L1010.65 227.56zM1079.93 387.56L1114.57 407.56L1114.57 447.56L1079.93 467.56L1045.29 447.56L1045.29 407.56zM1045.29 447.56L1079.93 467.56L1079.93 507.56L1045.29 527.56L1010.65 507.56L1010.65 467.56zM1045.29 567.56L1079.93 587.56L1079.93 627.56L1045.29 647.56L1010.65 627.56L1010.65 587.56zM1079.93 627.56L1114.57 647.56L1114.57 687.56L1079.93 707.56L1045.29 687.56L1045.29 647.56zM1045.29 687.56L1079.93 707.56L1079.93 747.56L1045.29 767.56L1010.65 747.56L1010.65 707.56zM1045.29 1047.56L1079.93 1067.56L1079.93 1107.56L1045.29 1127.56L1010.65 1107.56L1010.65 1067.56zM1045.29 1167.56L1079.93 1187.56L1079.93 1227.56L1045.29 1247.56L1010.65 1227.56L1010.65 1187.56zM1079.93 1227.56L1114.57 1247.56L1114.57 1287.56L1079.93 1307.56L1045.29 1287.56L1045.29 1247.56zM1114.57 447.56L1149.22 467.56L1149.22 507.56L1114.57 527.56L1079.93 507.56L1079.93 467.56zM1149.22 627.56L1183.86 647.56L1183.86 687.56L1149.22 707.56L1114.57 687.56L1114.57 647.56zM1114.57 687.56L1149.22 707.56L1149.22 747.56L1114.57 767.56L1079.93 747.56L1079.93 707.56zM1114.57 807.56L1149.22 827.56L1149.22 867.56L1114.57 887.56L1079.93 867.56L1079.93 827.56zM1114.57 1047.56L1149.22 1067.56L1149.22 1107.56L1114.57 1127.56L1079.93 1107.56L1079.93 1067.56zM1114.57 1287.56L1149.22 1307.56L1149.22 1347.56L1114.57 1367.56L1079.93 1347.56L1079.93 1307.56zM1183.86 -32.44L1218.5 -12.44L1218.5 27.56L1183.86 47.56L1149.22 27.56L1149.22 -12.44zM1183.86 87.56L1218.5 107.56L1218.5 147.56L1183.86 167.56L1149.22 147.56L1149.22 107.56zM1183.86 207.56L1218.5 227.56L1218.5 267.56L1183.86 287.56L1149.22 267.56L1149.22 227.56zM1218.5 507.56L1253.14 527.56L1253.14 567.56L1218.5 587.56L1183.86 567.56L1183.86 527.56zM1183.86 567.56L1218.5 587.56L1218.5 627.56L1183.86 647.56L1149.22 627.56L1149.22 587.56zM1218.5 627.56L1253.14 647.56L1253.14 687.56L1218.5 707.56L1183.86 687.56L1183.86 647.56zM1183.86 687.56L1218.5 707.56L1218.5 747.56L1183.86 767.56L1149.22 747.56L1149.22 707.56zM1218.5 867.56L1253.14 887.56L1253.14 927.56L1218.5 947.56L1183.86 927.56L1183.86 887.56zM1253.14 87.56L1287.78 107.56L1287.78 147.56L1253.14 167.56L1218.5 147.56L1218.5 107.56zM1287.78 387.56L1322.43 407.56L1322.43 447.56L1287.78 467.56L1253.14 447.56L1253.14 407.56zM1253.14 687.56L1287.78 707.56L1287.78 747.56L1253.14 767.56L1218.5 747.56L1218.5 707.56zM1287.78 987.56L1322.43 1007.56L1322.43 1047.56L1287.78 1067.56L1253.14 1047.56L1253.14 1007.56zM1253.14 1167.56L1287.78 1187.56L1287.78 1227.56L1253.14 1247.56L1218.5 1227.56L1218.5 1187.56zM1287.78 1227.56L1322.43 1247.56L1322.43 1287.56L1287.78 1307.56L1253.14 1287.56L1253.14 1247.56zM1253.14 1287.56L1287.78 1307.56L1287.78 1347.56L1253.14 1367.56L1218.5 1347.56L1218.5 1307.56zM1357.07 387.56L1391.71 407.56L1391.71 447.56L1357.07 467.56L1322.43 447.56L1322.43 407.56zM1357.07 507.56L1391.71 527.56L1391.71 567.56L1357.07 587.56L1322.43 567.56L1322.43 527.56zM1322.43 687.56L1357.07 707.56L1357.07 747.56L1322.43 767.56L1287.78 747.56L1287.78 707.56zM1357.07 747.56L1391.71 767.56L1391.71 807.56L1357.07 827.56L1322.43 807.56L1322.43 767.56zM1357.07 1107.56L1391.71 1127.56L1391.71 1167.56L1357.07 1187.56L1322.43 1167.56L1322.43 1127.56zM1357.07 1347.56L1391.71 1367.56L1391.71 1407.56L1357.07 1427.56L1322.43 1407.56L1322.43 1367.56zM1391.71 207.56L1426.35 227.56L1426.35 267.56L1391.71 287.56L1357.07 267.56L1357.07 227.56zM1426.35 267.56L1460.99 287.56L1460.99 327.56L1426.35 347.56L1391.71 327.56L1391.71 287.56zM1391.71 327.56L1426.35 347.56L1426.35 387.56L1391.71 407.56L1357.07 387.56L1357.07 347.56zM1391.71 447.56L1426.35 467.56L1426.35 507.56L1391.71 527.56L1357.07 507.56L1357.07 467.56zM1391.71 687.56L1426.35 707.56L1426.35 747.56L1391.71 767.56L1357.07 747.56L1357.07 707.56zM1426.35 987.56L1460.99 1007.56L1460.99 1047.56L1426.35 1067.56L1391.71 1047.56L1391.71 1007.56zM1391.71 1047.56L1426.35 1067.56L1426.35 1107.56L1391.71 1127.56L1357.07 1107.56L1357.07 1067.56zM1426.35 1227.56L1460.99 1247.56L1460.99 1287.56L1426.35 1307.56L1391.71 1287.56L1391.71 1247.56zM1460.99 87.56L1495.64 107.56L1495.64 147.56L1460.99 167.56L1426.35 147.56L1426.35 107.56zM1495.64 147.56L1530.28 167.56L1530.28 207.56L1495.64 227.56L1460.99 207.56L1460.99 167.56zM1495.64 507.56L1530.28 527.56L1530.28 567.56L1495.64 587.56L1460.99 567.56L1460.99 527.56zM1460.99 687.56L1495.64 707.56L1495.64 747.56L1460.99 767.56L1426.35 747.56L1426.35 707.56zM1495.64 747.56L1530.28 767.56L1530.28 807.56L1495.64 827.56L1460.99 807.56L1460.99 767.56zM1495.64 987.56L1530.28 1007.56L1530.28 1047.56L1495.64 1067.56L1460.99 1047.56L1460.99 1007.56zM1495.64 1347.56L1530.28 1367.56L1530.28 1407.56L1495.64 1427.56L1460.99 1407.56L1460.99 1367.56zM1530.28 -32.44L1564.92 -12.44L1564.92 27.56L1530.28 47.56L1495.64 27.56L1495.64 -12.44zM1564.92 147.56L1599.56 167.56L1599.56 207.56L1564.92 227.56L1530.28 207.56L1530.28 167.56zM1530.28 327.56L1564.92 347.56L1564.92 387.56L1530.28 407.56L1495.64 387.56L1495.64 347.56zM1564.92 387.56L1599.56 407.56L1599.56 447.56L1564.92 467.56L1530.28 447.56L1530.28 407.56zM1530.28 447.56L1564.92 467.56L1564.92 507.56L1530.28 527.56L1495.64 507.56L1495.64 467.56zM1564.92 747.56L1599.56 767.56L1599.56 807.56L1564.92 827.56L1530.28 807.56L1530.28 767.56zM1564.92 1227.56L1599.56 1247.56L1599.56 1287.56L1564.92 1307.56L1530.28 1287.56L1530.28 1247.56zM1599.56 207.56L1634.2 227.56L1634.2 267.56L1599.56 287.56L1564.92 267.56L1564.92 227.56zM1634.2 267.56L1668.85 287.56L1668.85 327.56L1634.2 347.56L1599.56 327.56L1599.56 287.56zM1634.2 387.56L1668.85 407.56L1668.85 447.56L1634.2 467.56L1599.56 447.56L1599.56 407.56zM1599.56 447.56L1634.2 467.56L1634.2 507.56L1599.56 527.56L1564.92 507.56L1564.92 467.56zM1634.2 747.56L1668.85 767.56L1668.85 807.56L1634.2 827.56L1599.56 807.56L1599.56 767.56zM1599.56 807.56L1634.2 827.56L1634.2 867.56L1599.56 887.56L1564.92 867.56L1564.92 827.56zM1599.56 1047.56L1634.2 1067.56L1634.2 1107.56L1599.56 1127.56L1564.92 1107.56L1564.92 1067.56zM1634.2 1107.56L1668.85 1127.56L1668.85 1167.56L1634.2 1187.56L1599.56 1167.56L1599.56 1127.56zM1634.2 1347.56L1668.85 1367.56L1668.85 1407.56L1634.2 1427.56L1599.56 1407.56L1599.56 1367.56z" stroke="rgba(6, 80, 156, 0.93)" stroke-width="2"></path></g><defs><mask id="SvgjsMask1092"><rect width="1600" height="1400" fill="#ffffff"></rect></mask></defs></svg>